<svg width="498" height="80" viewBox="0 0 498 80" fill="none" xmlns="http://www.w3.org/2000/svg">
<path d="M0.92 59L24.44 0.0319982H41.24L64.76 59H58.04C58.04 50.656 56.836 43.432 54.428 37.328L52.916 33.464H27.884L17.72 59H0.92ZM40.4 2.132L28.556 31.784H52.244L40.4 2.132ZM85.7206 59H68.9206V0.0319982H85.7206V59ZM108.962 60.344C106.274 60.344 103.754 59.728 101.402 58.496C99.1064 57.208 97.2584 55.36 95.8584 52.952C94.4584 50.488 93.7584 47.548 93.7584 44.132V10.448H110.558V52.448C110.558 53.96 110.838 55.108 111.398 55.892C112.014 56.62 112.826 56.984 113.834 56.984C115.234 56.984 116.83 56.284 118.622 54.884C120.47 53.484 122.15 51.524 123.662 49.004C125.23 46.484 126.378 43.684 127.106 40.604V10.448H143.906V59H127.106V46.232H126.77C124.81 50.88 122.262 54.408 119.126 56.816C115.99 59.168 112.602 60.344 108.962 60.344ZM164.39 79.58C159.91 79.58 155.206 79.076 150.278 78.068L153.638 67.988C161.702 74.204 168.198 77.312 173.126 77.312C176.598 77.312 179.146 75.884 180.77 73.028C182.45 70.228 183.29 66.392 183.29 61.52V52.364H183.122C181.778 54.772 179.762 56.676 177.074 58.076C174.386 59.476 171.474 60.176 168.338 60.176C165.034 60.176 161.926 59.336 159.014 57.656C156.158 55.976 153.834 53.288 152.042 49.592C150.25 45.896 149.354 41.164 149.354 35.396C149.354 30.076 150.39 25.456 152.462 21.536C154.59 17.616 157.418 14.62 160.946 12.548C164.474 10.476 168.338 9.44 172.538 9.44C176.234 9.44 179.818 10.224 183.29 11.792V10.448H200.09V50.012C200.09 55.948 198.578 61.156 195.554 65.636C192.586 70.116 188.386 73.56 182.954 75.968C177.578 78.376 171.39 79.58 164.39 79.58ZM174.89 55.22C176.458 55.22 177.97 54.716 179.426 53.708C180.882 52.644 182.17 51.076 183.29 49.004V14.06C181.162 12.884 179.146 12.296 177.242 12.296C174.61 12.296 172.37 13.388 170.522 15.572C168.674 17.7 167.274 20.5 166.322 23.972C165.426 27.388 164.978 31.028 164.978 34.892C164.978 38.42 165.37 41.752 166.154 44.888C166.938 47.968 168.058 50.46 169.514 52.364C171.026 54.268 172.818 55.22 174.89 55.22ZM222.367 60.26C218.503 60.26 215.311 59.588 212.791 58.244C210.271 56.9 208.423 55.192 207.247 53.12C206.071 51.048 205.483 48.864 205.483 46.568C205.483 41.92 206.967 38 209.935 34.808C212.959 31.616 216.571 29.068 220.771 27.164C224.971 25.204 230.347 23.104 236.899 20.864L238.915 20.192C238.915 13.752 236.983 10.532 233.119 10.532C229.927 10.532 226.679 11.848 223.375 14.48C220.127 17.112 217.159 20.696 214.471 25.232L211.363 13.472C215.339 12.016 219.343 10.896 223.375 10.112C227.463 9.272 231.327 8.852 234.967 8.852C241.183 8.852 246.195 10.084 250.003 12.548C253.811 15.012 255.715 18.792 255.715 23.888V59H238.915V51.02C236.955 53.54 234.491 55.724 231.523 57.572C228.555 59.364 225.503 60.26 222.367 60.26ZM230.683 54.296C232.755 54.296 235.499 52.644 238.915 49.34V21.872C233.203 24.168 229.003 26.856 226.315 29.936C223.627 33.016 222.283 37.244 222.283 42.62C222.283 45.924 223.067 48.696 224.635 50.936C226.203 53.176 228.219 54.296 230.683 54.296ZM281.782 59V0.0319982H298.582V57.32C304.686 57.32 309.67 56.732 313.534 55.556C317.398 54.324 321.738 52.112 326.554 48.92V59H281.782ZM354.59 60.428C349.046 60.428 344.202 59.476 340.058 57.572C335.914 55.668 332.666 52.84 330.314 49.088C328.018 45.28 326.87 40.66 326.87 35.228C326.87 29.684 328.018 24.952 330.314 21.032C332.666 17.112 335.914 14.144 340.058 12.128C344.258 10.112 349.102 9.104 354.59 9.104C360.134 9.104 364.978 10.112 369.122 12.128C373.266 14.144 376.486 17.112 378.782 21.032C381.078 24.896 382.226 29.628 382.226 35.228C382.226 43.348 379.734 49.592 374.75 53.96C369.822 58.272 363.102 60.428 354.59 60.428ZM354.59 58.748C356.998 58.748 359.098 57.572 360.89 55.22C362.682 52.812 364.054 49.788 365.006 46.148C366.014 42.508 366.518 38.868 366.518 35.228C366.518 31.868 366.014 28.284 365.006 24.476C364.054 20.612 362.654 17.364 360.806 14.732C359.014 12.1 356.942 10.784 354.59 10.784C352.182 10.784 350.082 12.1 348.29 14.732C346.498 17.364 345.098 20.584 344.09 24.392C343.138 28.2 342.662 31.812 342.662 35.228C342.662 38.924 343.138 42.592 344.09 46.232C345.042 49.872 346.414 52.868 348.206 55.22C350.054 57.572 352.182 58.748 354.59 58.748ZM414.144 60.428C408.6 60.428 403.756 59.476 399.612 57.572C395.468 55.668 392.22 52.84 389.868 49.088C387.572 45.28 386.424 40.66 386.424 35.228C386.424 29.684 387.572 24.952 389.868 21.032C392.22 17.112 395.468 14.144 399.612 12.128C403.812 10.112 408.656 9.104 414.144 9.104C419.688 9.104 424.532 10.112 428.676 12.128C432.82 14.144 436.04 17.112 438.336 21.032C440.632 24.896 441.78 29.628 441.78 35.228C441.78 43.348 439.288 49.592 434.304 53.96C429.376 58.272 422.656 60.428 414.144 60.428ZM414.144 58.748C416.552 58.748 418.652 57.572 420.444 55.22C422.236 52.812 423.608 49.788 424.56 46.148C425.568 42.508 426.072 38.868 426.072 35.228C426.072 31.868 425.568 28.284 424.56 24.476C423.608 20.612 422.208 17.364 420.36 14.732C418.568 12.1 416.496 10.784 414.144 10.784C411.736 10.784 409.636 12.1 407.844 14.732C406.052 17.364 404.652 20.584 403.644 24.392C402.692 28.2 402.216 31.812 402.216 35.228C402.216 38.924 402.692 42.592 403.644 46.232C404.596 49.872 405.968 52.868 407.76 55.22C409.608 57.572 411.736 58.748 414.144 58.748ZM447.659 59V0.0319982H464.459V26.996L494.363 10.448V20.528C493.131 20.248 491.871 20.108 490.583 20.108C488.063 20.108 485.263 20.5 482.183 21.284C479.103 22.068 476.219 22.992 473.531 24.056C470.843 25.064 468.883 25.96 467.651 26.744V26.996C470.115 26.156 472.495 25.736 474.791 25.736C477.535 25.736 479.943 26.296 482.015 27.416C484.087 28.536 485.543 30.104 486.383 32.12L497.639 59H480.839L469.667 32.876C468.603 30.412 467.203 29.18 465.467 29.18C465.019 29.18 464.683 29.208 464.459 29.264V59H447.659Z" fill="black"/>
</svg>
