<svg width="1435" height="1021" viewBox="0 0 1435 1021" fill="none" xmlns="http://www.w3.org/2000/svg">
<g clip-path="url(#clip0_35_438)">
<path d="M-0.336111 1022H-2.14802V1020.72C-2.14802 906.918 -2.14802 793.367 -2.14802 679.561C-2.14802 456.542 -2.51041 226.123 -2.14802 -0.724147V-2L-0.336111 -2C527.293 -1.74483 1043.33 -1.74483 1434.34 -2L1436.15 -2V-0.724147C1436.15 124.054 1436.15 249.088 1436.15 373.866C1436.15 585.913 1436.51 804.85 1436.15 1020.47V1021.74H1434.34C1115.8 1021.49 792.194 1021.49 478.733 1021.74C319.285 1022 159.475 1022 -0.336111 1022ZM1.4758 0.806883C1.11342 227.143 1.11342 457.307 1.4758 679.816C1.4758 793.112 1.4758 906.408 1.4758 1019.7C160.562 1019.7 319.648 1019.7 479.096 1019.7C791.832 1019.7 1114.71 1019.45 1432.89 1019.7C1433.25 804.595 1433.25 585.913 1432.89 374.377C1432.89 249.853 1432.89 125.585 1432.89 1.06205C1042.6 0.80688 527.655 1.06205 1.4758 0.806883Z" fill="#F205B3" fill-opacity="0.05"/>
<path d="M837.854 103.385C797.268 103.385 755.594 98.7924 708.484 88.3304C533.816 49.5445 345.739 56.9444 163.823 63.834C109.828 65.8754 54.0212 68.1719 0.0262451 68.9374L0.0262451 66.3857C54.0212 65.6202 109.828 63.3237 163.823 61.2823C346.102 54.1375 534.54 46.9928 709.571 85.7787C824.809 111.296 905.982 102.11 1024.12 74.5512C1121.6 51.841 1223.43 56.9444 1321.64 62.0478C1358.6 63.834 1397.01 65.8754 1434.7 66.3857V68.9374C1397.01 68.4271 1358.6 66.6409 1321.27 64.5995C1223.43 59.4961 1121.96 54.3927 1025.21 76.8477C954.542 93.4338 896.923 103.385 837.854 103.385Z" fill="#F205B3" fill-opacity="0.05"/>
<path d="M817.561 245.005C769.727 245.005 731.314 217.957 700.149 196.268C697.612 194.481 695.076 192.695 692.539 190.909C638.544 153.399 577.664 139.875 513.16 125.33C492.504 120.737 471.123 115.889 449.018 110.275C358.785 86.5442 249.345 103.13 143.53 119.206C92.7962 126.861 44.5993 134.261 -0.336109 136.813L-0.698486 134.261C43.8746 131.454 91.709 124.309 142.443 116.654C248.621 100.579 358.785 83.9925 450.105 107.723C471.848 113.337 493.229 118.185 513.885 122.778C578.751 137.323 639.994 151.102 694.713 188.868C697.25 190.654 699.787 192.44 702.323 194.226C736.025 217.957 774.075 244.75 823.359 242.198C875.18 239.647 928.088 209.026 974.835 181.978C989.33 173.557 1002.74 165.902 1015.42 159.268C1088.62 122.268 1144.07 103.641 1228.87 112.061C1254.59 114.613 1280.32 117.93 1305.33 121.247C1347.36 126.606 1390.85 132.22 1434.7 134.516L1434.34 137.068C1390.13 134.771 1346.64 129.158 1304.6 123.799C1279.6 120.737 1253.87 117.42 1228.5 114.868C1145.15 106.448 1090.07 124.82 1017.96 161.82C1005.64 168.199 991.867 176.109 977.734 184.275C930.624 211.578 877.354 242.454 824.084 245.005C821.91 245.005 819.735 245.005 817.561 245.005Z" fill="#F205B3" fill-opacity="0.05"/>
<path d="M801.979 350.136C750.158 350.136 718.268 314.667 692.539 285.833C689.64 282.77 687.103 279.964 684.567 277.157C640.356 229.185 620.063 218.212 549.036 202.902C526.206 198.054 512.073 190.144 497.577 181.978C489.605 177.64 481.633 173.047 471.486 168.709C421.477 146.509 358.423 155.951 303.34 164.371C296.455 165.392 289.57 166.413 282.685 167.433C257.68 171.006 231.951 174.833 207.671 178.661C140.268 189.123 70.6909 199.84 0.0263174 204.688L-0.33606 202.137C69.9661 197.033 139.544 186.316 206.584 176.109C231.226 172.282 256.593 168.454 281.96 164.882C288.845 163.861 295.73 162.84 302.616 161.82C358.785 153.399 422.202 143.702 473.66 166.668C483.807 171.261 492.142 175.854 500.114 180.192C514.972 188.612 528.018 195.757 550.485 200.606C621.875 215.916 643.618 227.909 687.828 275.881C690.365 278.688 692.902 281.75 695.801 284.812C722.255 314.156 754.869 350.391 808.139 347.584C865.033 344.777 924.464 300.122 971.936 264.398C986.431 253.426 1000.2 243.219 1012.16 235.564C1083.55 189.123 1137.54 159.523 1232.13 172.537C1257.86 176.109 1283.22 180.702 1307.5 185.04C1348.45 192.44 1390.85 199.84 1435.06 202.647L1434.7 205.199C1390.13 202.392 1347.73 194.737 1306.78 187.337C1282.5 182.999 1257.13 178.406 1231.4 174.833C1138.27 162.075 1085 191.164 1014.7 237.35C1002.74 245.005 989.33 255.212 974.835 266.184C926.638 302.163 866.845 347.329 808.502 350.136C805.965 350.136 804.153 350.136 801.979 350.136Z" fill="#F205B3" fill-opacity="0.05"/>
<path d="M817.923 379.735C770.451 379.735 733.488 354.218 700.512 331.508C697.975 329.722 695.438 327.936 692.901 326.405C638.544 289.15 577.302 275.881 512.435 261.591C491.779 256.998 470.399 252.405 448.293 246.791C357.698 223.571 248.983 239.902 143.53 255.722C92.7962 263.378 44.5993 270.522 -0.336109 273.074L-0.698486 270.522C43.8746 267.971 92.0714 260.571 142.805 253.171C248.621 237.35 357.698 221.019 449.381 244.495C471.124 250.109 492.504 254.702 513.16 259.295C578.389 273.584 639.994 287.108 695.076 324.618C697.612 326.405 700.149 327.936 702.686 329.722C736.387 353.198 774.8 379.48 824.084 377.184C875.905 374.632 928.45 344.267 975.198 317.729C989.693 309.563 1003.1 301.653 1015.78 295.274C1088.62 258.529 1144.07 240.157 1228.87 248.578C1254.59 251.129 1280.32 254.447 1305.33 257.509C1347.36 262.867 1390.85 268.226 1434.7 270.522L1434.34 273.074C1390.13 270.777 1346.64 265.419 1304.24 260.06C1279.24 256.998 1253.51 253.681 1227.78 251.129C1144.43 242.709 1089.35 261.081 1017.6 297.315C1005.28 303.694 991.505 311.35 977.372 319.515C930.262 346.308 877.354 376.928 824.446 379.48C822.272 379.735 820.098 379.735 817.923 379.735Z" fill="#F205B3" fill-opacity="0.05"/>
<path d="M838.217 374.377C797.63 374.377 755.956 369.784 708.484 359.577C533.816 322.067 346.464 329.212 164.91 336.101C110.553 338.143 54.0213 340.184 -0.698486 340.949L-0.698486 338.398C53.6589 337.632 110.191 335.591 164.548 333.549C346.102 326.66 533.816 319.77 709.209 357.28C824.809 382.032 905.982 373.101 1023.76 346.308C1120.88 324.363 1222.34 329.467 1320.55 334.315C1357.87 336.101 1396.29 338.143 1433.97 338.398V340.949C1395.92 340.439 1357.51 338.653 1320.19 336.867C1222.34 332.018 1121.24 326.915 1024.84 348.86C954.904 364.935 897.648 374.377 838.217 374.377Z" fill="#F205B3" fill-opacity="0.05"/>
<path d="M932.074 409.335C762.841 409.335 593.971 409.335 425.101 409.335L0.0262451 409.335L0.0262451 406.783L425.101 406.783C761.754 406.783 1098.05 406.783 1434.7 406.783V409.335C1266.92 409.335 1099.49 409.335 932.074 409.335Z" fill="#F205B3" fill-opacity="0.05"/>
<path d="M1434.34 477.466C1356.42 475.679 1274.16 468.79 1194.8 461.9C1028.47 447.611 856.336 432.811 698.7 462.921C613.54 478.997 530.917 477.976 443.582 476.7C430.537 476.445 417.491 476.445 404.083 476.19C317.836 475.424 230.502 475.935 145.704 476.7C97.8696 476.955 48.2232 477.466 -0.33606 477.466L-0.33606 474.914C48.2232 474.914 97.8696 474.404 145.704 474.148C230.502 473.638 317.836 472.873 404.083 473.638C417.491 473.638 430.537 473.893 443.582 474.148C530.917 475.424 613.177 476.445 697.975 460.369C856.336 430.259 1028.83 445.059 1195.53 459.349C1274.89 466.238 1357.15 473.128 1434.7 474.914L1434.34 477.466Z" fill="#F205B3" fill-opacity="0.05"/>
<path d="M0.0262451 545.341L0.0262451 542.789C48.2231 542.534 97.5071 541.513 145.342 540.493C241.373 538.707 340.303 536.665 437.784 539.472C449.38 539.727 460.252 540.238 471.123 540.748C546.499 543.81 606.292 546.362 662.824 501.707C733.851 446.08 832.781 458.838 928.812 471.342C949.831 474.148 971.936 476.955 992.954 478.997C1020.5 481.548 1048.76 483.335 1076.3 484.866C1126.67 487.672 1178.49 490.735 1227.42 499.921C1254.23 505.024 1279.96 511.403 1304.97 517.527C1348.09 528.245 1389.04 538.196 1435.06 542.789L1434.7 545.341C1388.31 540.748 1345.19 530.286 1303.88 520.079C1278.87 513.955 1253.14 507.576 1226.69 502.472C1178.13 493.286 1126.31 490.224 1076.3 487.417C1048.76 485.886 1020.13 484.355 992.592 481.548C971.574 479.507 949.468 476.7 928.45 473.893C833.506 461.645 735.3 448.887 665.723 503.493C607.742 548.913 547.586 546.362 471.123 543.3C460.252 542.789 449.38 542.279 437.784 542.024C340.666 539.217 241.373 541.258 145.704 543.045C97.5071 544.065 48.2231 545.086 0.0262451 545.341Z" fill="#F205B3" fill-opacity="0.05"/>
<path d="M0.0262451 613.472L0.0262451 610.92C51.1222 610.41 103.305 608.879 153.676 607.603C253.332 604.796 356.248 601.734 456.628 606.582C466.775 607.092 476.921 607.603 486.706 608.368C506.999 609.644 528.017 611.175 548.673 610.92C611.003 610.154 622.237 594.589 643.617 555.803L645.792 551.976C662.824 521.355 672.97 502.728 726.603 499.155C783.497 495.328 847.276 505.279 908.881 514.721C934.248 518.548 957.803 522.376 980.633 525.183C1008.9 528.5 1038.61 530.541 1067.6 532.327C1122.32 535.9 1179.22 539.472 1229.59 552.741C1256.77 559.886 1282.14 568.562 1306.41 577.237C1347.73 591.782 1386.86 605.306 1435.06 611.175L1434.34 613.727C1385.78 607.858 1346.28 594.079 1304.97 579.534C1280.69 571.113 1255.68 562.182 1228.5 555.293C1178.49 542.279 1121.96 538.451 1067.24 535.134C1038.25 533.348 1008.54 531.307 980.271 527.989C957.441 525.183 933.523 521.61 908.157 517.527C846.914 507.831 783.135 498.135 726.965 501.962C675.507 505.534 666.448 522.376 649.416 553.251L647.241 557.079C625.136 596.886 613.54 612.961 549.036 613.727C528.017 613.982 506.999 612.451 486.344 611.175C476.559 610.41 466.412 609.899 456.266 609.389C355.886 604.541 252.969 607.603 153.676 610.41C102.943 611.43 50.7598 612.961 0.0262451 613.472Z" fill="#F205B3" fill-opacity="0.05"/>
<path d="M566.43 698.443C539.614 698.443 510.261 693.85 478.009 688.747C466.413 686.961 454.454 684.919 442.133 683.133C343.203 669.099 235.575 673.437 131.209 677.52C87.7229 679.306 42.4251 681.092 -0.33606 681.347L-0.33606 678.795C42.4251 678.54 87.3605 676.754 131.209 674.968C235.575 670.885 343.927 666.292 442.858 680.582C455.179 682.368 467.137 684.154 478.734 686.195C558.82 698.954 622.237 709.161 671.521 647.409L672.971 645.623C695.801 617.044 711.021 598.161 763.566 595.61C813.937 593.058 868.295 604.796 920.84 616.023C939.322 619.851 956.716 623.679 973.386 626.741C1123.05 653.534 1290.47 668.078 1434.7 679.051L1434.34 681.602C1290.11 670.885 1122.69 656.34 972.661 629.292C955.991 626.23 938.597 622.658 920.115 618.575C867.932 607.348 813.937 595.865 763.928 598.417C713.195 600.968 699.424 618.32 676.232 647.154L674.782 648.94C643.98 687.216 608.104 698.443 566.43 698.443Z" fill="#F205B3" fill-opacity="0.05"/>
<path d="M609.916 800.512C566.068 800.512 520.77 789.029 474.385 777.291C456.628 772.953 438.509 768.36 420.027 764.278C319.648 742.078 209.121 745.14 102.218 747.947C68.5165 748.967 33.3654 749.733 0.0262451 749.733L0.0262451 747.181C33.7278 747.181 68.5165 746.161 102.218 745.395C209.483 742.588 320.01 739.526 421.115 761.981C439.596 766.064 458.078 770.657 475.472 775.25C568.242 798.726 648.328 818.884 724.791 760.45C804.515 699.464 865.758 721.919 957.803 755.857L963.964 758.154C1064.71 795.153 1186.47 778.567 1304.6 762.491C1350.26 756.367 1393.39 750.498 1434.7 747.692L1435.06 750.243C1393.75 753.05 1350.63 758.919 1305.33 765.043C1186.83 781.119 1064.34 797.96 962.514 760.45L956.353 758.154C865.758 724.726 805.602 702.781 727.69 762.236C689.64 790.56 650.503 800.512 609.916 800.512Z" fill="#F205B3" fill-opacity="0.05"/>
<path d="M1040.06 888.291C1009.99 888.291 981.358 881.911 954.179 862.518C882.427 810.974 836.043 809.188 755.956 854.863C659.562 909.725 567.517 883.697 470.036 856.139C449.381 850.27 427.638 844.146 405.895 838.787C303.34 813.27 191.364 815.057 83.3742 816.843C55.8331 817.353 27.5673 817.863 0.0262451 817.863L0.0262451 815.312C27.5673 815.312 55.8331 814.801 83.3742 814.291C191.727 812.505 303.703 810.719 407.344 836.236C429.449 841.594 450.83 847.718 471.848 853.587C572.228 881.911 659.2 906.663 754.144 852.567C836.405 805.87 883.877 807.657 957.441 860.477C1007.09 896.201 1063.26 886.249 1122.69 875.532C1162.55 868.387 1202.41 859.456 1240.46 850.78C1302.79 836.746 1367.66 821.946 1434.7 815.057L1435.06 817.608C1368.02 824.498 1303.52 839.043 1241.19 853.332C1202.77 862.008 1163.27 870.939 1123.05 878.084C1094.42 883.442 1066.88 888.291 1040.06 888.291Z" fill="#F205B3" fill-opacity="0.05"/>
<path d="M1086.09 938.814C1045.86 938.814 1007.81 933.456 973.386 919.166C885.689 883.187 834.593 881.911 746.172 913.552C639.631 951.573 553.022 933.201 452.28 912.277C435.61 908.704 418.578 905.132 400.821 901.815C298.629 881.911 189.915 883.442 84.4614 884.973C56.558 885.484 27.9298 885.739 -0.33606 885.739L-0.33606 883.187C27.5674 883.187 56.558 882.677 84.4614 882.422C189.915 880.891 299.354 879.36 401.908 899.263C419.665 902.835 436.697 906.408 453.367 909.725C557.371 931.414 639.269 948.511 744.36 911.001C834.593 878.849 886.051 880.125 975.198 916.614C1065.07 953.614 1181.39 929.883 1293.37 906.663C1343.74 896.456 1390.85 886.76 1433.97 882.932L1434.34 885.484C1391.57 889.311 1344.1 899.008 1294.09 909.215C1224.15 924.014 1152.4 938.814 1086.09 938.814Z" fill="#F205B3" fill-opacity="0.05"/>
<path d="M1111.45 971.731C1077.39 971.731 1042.96 970.2 1008.17 966.373C901.996 954.125 817.924 953.614 727.328 964.076C607.017 978.111 496.853 968.414 390.312 959.483C294.643 951.318 195.35 952.338 99.6814 953.614C67.067 953.869 33.0031 954.38 0.0262451 954.38L0.0262451 951.828C33.0031 951.828 67.067 951.318 99.6814 951.062C195.713 950.042 295.006 948.766 391.037 957.187C497.577 966.373 607.379 975.814 726.965 961.78C818.286 951.318 902.359 951.828 1008.9 964.076C1102.39 974.793 1195.89 967.649 1286.12 960.504C1334.68 956.676 1384.69 952.849 1434.7 951.828V954.38C1384.69 955.4 1334.68 959.483 1286.48 963.056C1229.23 967.138 1170.52 971.731 1111.45 971.731Z" fill="#F205B3" fill-opacity="0.05"/>
<path d="M1337.22 1020.72C1335.41 987.297 1329.25 954.89 1323.45 923.504C1313.3 870.173 1303.88 820.16 1313.3 764.533C1328.52 673.692 1340.84 591.017 1338.67 500.941C1336.13 396.832 1336.86 290.936 1337.22 188.357C1337.58 126.606 1337.94 62.5582 1337.58 -0.468964L1341.2 -0.468964C1341.57 62.303 1341.2 126.351 1340.84 188.357C1340.48 290.936 1339.75 396.832 1342.29 500.941C1344.47 591.272 1332.14 673.947 1316.92 765.043C1307.86 820.16 1317.29 870.429 1327.07 923.504C1332.87 954.89 1339.03 987.552 1340.84 1020.98L1337.22 1020.72Z" fill="#F205B3" fill-opacity="0.05"/>
<path d="M1241.55 1020.98C1234.3 993.931 1217.63 974.028 1199.51 953.104C1189.73 941.621 1179.94 929.883 1171.25 916.614C1144.43 876.042 1159.29 833.939 1173.06 793.112C1174.51 789.284 1175.59 785.201 1177.04 781.374C1183.2 763.512 1189.37 745.65 1195.53 728.554C1224.52 647.409 1251.7 570.858 1245.53 483.845C1240.1 411.121 1244.09 337.377 1248.07 266.184L1248.43 262.612C1251.7 202.902 1248.43 142.682 1245.53 84.2477C1244.09 56.4341 1242.64 27.5998 1241.91 -0.979309L1245.53 -0.979309C1246.26 27.3446 1247.71 56.1789 1249.16 83.9925C1252.06 142.427 1255.32 202.647 1252.06 262.612L1251.7 266.184C1247.71 337.377 1244.09 410.866 1249.16 483.59C1255.32 570.858 1228.14 647.664 1199.15 729.064C1192.99 746.16 1186.83 764.022 1180.67 781.884C1179.22 785.712 1178.13 789.795 1176.68 793.622C1162.91 833.939 1148.42 875.787 1174.51 915.339C1183.2 928.607 1192.99 940.09 1202.77 951.573C1220.89 972.752 1237.92 992.91 1245.17 1020.47L1241.55 1020.98Z" fill="#F205B3" fill-opacity="0.05"/>
<path d="M1145.88 1020.98C1136.46 992.4 1115.8 978.876 1091.52 963.056C1077.75 954.125 1063.62 944.938 1050.57 932.18C1013.61 895.946 1033.54 850.27 1050.94 809.953C1053.83 803.574 1056.37 797.705 1058.55 791.836C1068.33 767.595 1079.2 743.609 1089.35 720.643C1125.95 639.244 1160.74 562.438 1150.59 475.169C1143.34 409.845 1148.05 344.011 1152.76 279.964C1153.49 272.309 1153.85 264.398 1154.58 256.743C1158.56 199.074 1154.58 141.406 1150.95 85.5235C1149.14 57.4548 1146.97 28.3653 1145.88 -0.468964L1149.5 -0.468964C1150.59 28.3653 1152.4 57.4548 1154.58 85.5235C1158.56 141.406 1162.55 199.075 1158.2 256.998C1157.84 264.909 1157.11 272.564 1156.39 280.219C1151.68 344.011 1146.97 409.845 1154.21 474.914C1164 562.693 1129.57 639.754 1092.61 721.409C1082.1 744.629 1071.59 768.36 1061.81 792.602C1059.27 798.47 1056.73 804.339 1054.2 810.719C1036.8 850.525 1017.6 895.435 1053.47 930.649C1066.52 943.152 1080.29 952.338 1093.7 961.269C1117.25 976.58 1139.36 991.124 1149.14 1020.47L1145.88 1020.98Z" fill="#F205B3" fill-opacity="0.05"/>
<path d="M1050.21 1020.98C1043.33 993.931 1026.29 973.773 1008.9 952.594C999.477 941.111 989.33 929.373 980.995 916.104C957.078 879.36 965.775 838.532 973.748 799.236C975.56 791.07 977.009 782.905 978.459 774.74C983.532 744.629 987.156 713.754 990.78 680.837C998.752 608.879 1007.09 534.369 1035.35 469.045C1056.01 421.328 1052.02 370.804 1048.04 322.067C1047.31 311.35 1046.22 300.377 1045.5 289.66C1042.24 230.461 1044.77 170.24 1047.31 112.316C1048.76 75.3167 1050.57 37.0411 1050.57 -0.468964L1054.2 -0.468964C1054.2 37.2963 1052.38 75.5719 1050.94 112.572C1048.4 170.751 1045.86 230.716 1049.12 289.915C1049.85 300.632 1050.57 311.86 1051.66 322.322C1055.65 371.315 1059.63 421.839 1038.98 470.066C1010.71 535.134 1002.74 609.389 994.766 681.347C991.142 714.264 987.881 745.14 982.445 775.25C980.996 783.415 979.184 791.836 977.734 799.746C969.762 838.787 961.064 878.849 984.619 915.083C992.954 928.352 1003.1 940.09 1012.52 951.573C1030.28 973.007 1047.31 993.166 1054.56 1020.72L1050.21 1020.98Z" fill="#F205B3" fill-opacity="0.05"/>
<path d="M954.542 1020.72C949.831 929.118 926.276 830.877 905.258 744.119C899.459 720.643 892.212 696.147 884.964 672.671C870.469 625.72 855.611 576.982 852.712 530.031C850.175 489.969 860.685 480.017 903.083 458.583C968.312 425.156 954.904 396.321 925.913 347.839C907.794 317.474 911.78 286.598 915.767 254.191L916.129 251.385C920.84 215.661 927.001 179.682 933.161 144.723C941.496 97.2614 949.831 48.2686 954.542 -0.213806L958.165 0.0413606C953.817 48.5238 945.12 97.5166 936.785 144.978C930.624 179.937 924.464 215.916 919.753 251.64L919.39 254.447C915.042 286.598 911.418 316.963 929.175 346.818C958.89 396.577 972.661 426.176 905.258 460.625C864.308 481.548 854.162 491.245 856.336 530.031C859.235 576.982 874.093 625.465 888.588 672.416C895.836 696.147 903.446 720.388 908.881 743.864C929.9 830.622 953.454 928.863 958.165 1020.72H954.542Z" fill="#F205B3" fill-opacity="0.05"/>
<path d="M858.873 1020.72C858.873 1002.35 859.235 983.98 859.96 965.862C862.134 882.932 863.946 804.85 825.171 727.278C814.3 705.588 799.804 683.133 784.584 659.402C754.869 613.217 724.066 565.5 717.906 519.059C712.47 476.955 731.676 464.962 788.208 452.714L789.295 452.459C826.983 444.293 859.597 437.149 857.786 405.252C857.061 394.535 855.249 388.411 851.263 385.859C848.364 384.073 844.74 384.328 840.029 384.328C833.506 384.584 825.534 384.839 817.561 379.991C789.295 362.894 795.093 333.549 800.167 307.777C801.254 302.929 801.979 298.591 802.703 294.253C809.226 252.15 818.648 209.792 827.708 168.964C840.029 113.592 852.712 56.4341 858.873 -0.724152L862.497 -0.468975C856.336 56.6893 843.653 113.847 831.332 169.22C822.272 210.302 812.85 252.66 806.327 294.508C805.602 298.846 804.515 303.694 803.791 308.288C798.717 334.825 793.281 362.129 819.735 378.204C826.621 382.542 833.506 382.287 839.666 382.032C844.74 381.777 849.813 381.522 853.437 384.073C858.148 387.135 860.322 393.515 861.047 405.252C862.859 438.935 827.345 446.845 790.02 455.011L788.933 455.266C733.488 467.514 715.732 478.486 721.167 519.059C726.966 564.989 757.768 612.706 787.483 658.637C802.703 682.368 817.199 704.823 828.07 726.767C867.208 804.595 865.033 886.76 863.221 966.118C862.859 983.98 862.134 1002.61 862.134 1020.72H858.873Z" fill="#F205B3" fill-opacity="0.05"/>
<path d="M766.828 1020.72H763.204C763.928 994.186 766.827 968.669 769.727 944.173C776.974 879.104 783.859 817.608 752.695 748.967C742.91 727.533 730.227 705.844 717.181 682.878C691.814 638.734 665.36 593.313 659.562 548.658C654.489 508.597 672.608 494.307 710.658 468.024C769.727 427.452 767.915 403.977 732.764 353.963C713.195 326.15 717.181 297.06 721.167 266.44L722.254 259.55C727.328 222.55 733.851 185.295 740.736 149.316C749.796 100.323 758.855 49.7997 763.566 -0.213806L767.19 0.0413606C762.479 50.31 753.419 100.834 744.36 149.827C737.837 185.806 730.952 223.061 725.878 260.06L724.791 266.95C720.443 297.315 716.456 325.894 736.025 353.198C772.263 404.232 773.713 428.473 713.195 470.066C674.782 496.604 658.113 509.872 663.186 548.658C668.984 593.058 695.076 638.223 720.443 682.113C733.851 705.078 746.534 727.023 756.318 748.457C787.483 817.608 780.598 879.36 773.35 944.683C770.451 968.924 767.552 994.186 766.828 1020.72Z" fill="#F205B3" fill-opacity="0.05"/>
<path d="M671.159 1020.98L667.535 1020.72C671.883 995.462 683.117 974.283 695.076 951.573C700.874 940.345 707.034 928.607 712.47 916.614C731.676 871.96 715.732 828.07 701.599 789.284C694.351 769.636 686.741 750.243 679.131 731.616C647.604 654.044 617.888 580.81 649.053 495.073C672.246 430.514 666.085 371.825 656.663 307.267C646.517 240.923 653.402 173.302 659.925 107.979C663.549 72.2547 667.172 35.5101 667.897 -0.468964L671.521 -0.468964C670.796 35.7653 666.81 72.5098 663.549 108.234C657.026 173.557 650.503 241.178 660.287 307.267C670.071 372.08 676.232 431.28 652.677 496.093C621.875 581.065 651.59 654.044 682.755 731.105C690.365 749.733 697.975 768.871 705.222 788.774C719.355 827.815 735.3 871.96 715.732 917.38C710.658 929.628 704.498 941.366 698.337 952.594C686.741 974.793 675.507 995.973 671.159 1020.98Z" fill="#F205B3" fill-opacity="0.05"/>
<path d="M575.49 1020.98L571.866 1020.72C577.302 995.207 592.159 979.131 608.104 962.035C616.439 953.104 625.136 943.918 632.746 932.69C656.663 899.008 643.98 858.436 632.746 822.712C631.297 818.629 630.209 814.546 629.122 810.719C622.962 790.05 614.989 768.871 607.379 748.712C593.246 710.437 578.389 670.63 573.315 630.823C569.692 602.754 570.416 573.665 571.141 545.596C571.503 534.114 571.866 522.121 571.866 510.383C571.866 340.184 571.866 169.985 571.866 -0.213806L575.49 -0.213806C575.49 169.985 575.49 340.184 575.49 510.383C575.49 522.121 575.127 534.114 574.765 545.596C574.04 573.665 573.315 602.755 576.939 630.568C582.013 670.12 596.87 709.671 611.003 747.947C618.613 768.36 626.586 789.539 632.746 810.208C633.833 814.036 635.283 818.119 636.37 822.201C647.604 858.18 660.65 899.263 636.008 933.711C628.035 944.938 619.338 954.38 611.003 963.311C595.783 980.152 580.925 995.973 575.49 1020.98Z" fill="#F205B3" fill-opacity="0.05"/>
<path d="M479.821 1020.98L476.197 1020.72C480.545 995.462 491.779 974.283 503.738 951.828C509.536 940.601 515.697 929.118 521.132 916.87C535.628 882.677 530.917 846.953 526.206 812.25C525.481 806.636 524.756 801.022 524.031 795.408C520.045 763.257 516.784 730.085 513.522 698.188C507.362 636.182 501.201 571.879 488.88 509.617C471.848 421.328 483.082 343.246 497.577 272.053C509.898 212.343 500.114 157.482 489.605 99.5579C483.807 67.1513 477.646 33.7239 475.834 -0.468964L479.458 -0.468964C481.27 33.7239 487.068 66.8961 493.229 99.3028C503.738 157.482 513.522 212.343 501.201 272.564C486.344 343.501 475.11 421.583 492.504 509.362C504.463 571.624 510.986 635.927 517.146 697.933C520.408 729.83 523.669 762.747 527.655 795.153C528.38 800.767 529.105 806.381 529.829 811.994C534.54 846.953 539.614 883.187 524.756 917.635C519.32 929.883 513.16 941.621 507.362 952.849C495.403 975.049 484.169 995.973 479.821 1020.98Z" fill="#F205B3" fill-opacity="0.05"/>
<path d="M384.152 1020.72H380.528C383.789 926.056 395.023 840.829 413.867 767.595C416.404 757.643 418.94 748.202 421.477 738.761C443.22 657.616 460.614 593.568 417.128 508.341C415.317 505.024 413.867 501.707 412.055 498.39C396.473 468.28 380.528 436.894 381.977 403.977C384.152 365.191 403.72 327.425 422.564 291.191C428.725 279.708 434.885 267.715 440.321 255.978C458.44 217.447 479.096 173.813 460.252 130.689C451.192 109.765 437.059 91.6476 423.289 74.0409C405.895 51.5858 387.775 28.3653 380.528 -0.213808L384.152 -0.724152C391.399 27.3446 409.156 50.5652 426.55 72.765C440.321 90.627 454.816 108.999 463.876 129.923C483.082 173.813 462.064 217.957 443.945 256.743C438.509 268.481 432.348 280.474 426.188 291.957C407.344 328.191 387.775 365.446 385.601 403.977C383.789 436.638 399.734 467.514 415.317 497.369C417.128 500.686 418.578 504.003 420.39 507.321C463.876 593.058 446.844 657.616 424.738 739.271C422.202 748.712 419.665 758.153 417.128 768.105C398.647 841.084 387.413 926.056 384.152 1020.72Z" fill="#F205B3" fill-opacity="0.05"/>
<path d="M284.859 1020.72C284.859 1000.31 283.772 979.131 282.322 956.931C278.336 886.504 273.987 813.781 308.414 751.519C316.386 736.974 326.895 722.43 337.042 708.14C356.611 680.837 376.904 652.513 381.977 622.658C388.5 582.086 364.221 548.658 338.491 512.934L334.505 507.321C332.331 504.259 330.157 501.452 327.982 498.39C306.602 468.79 284.134 438.425 286.308 403.721C288.845 361.873 316.024 322.322 342.115 284.046C350.45 271.798 359.51 259.04 366.757 246.536L368.932 242.709C392.849 203.668 420.027 159.268 394.298 118.185C381.253 97.5166 362.046 82.7167 343.565 68.1719C319.648 49.5445 294.643 30.4067 284.859 -0.724154L288.483 -1.2345C298.267 29.1308 321.822 47.2479 346.464 66.3857C365.308 80.9305 384.876 95.9855 397.922 117.165C424.376 159.013 396.835 203.923 372.555 243.729L370.381 247.557C362.771 260.06 354.074 272.819 345.377 285.067C319.285 323.087 292.469 362.384 289.932 403.721C287.758 437.659 309.863 468.024 331.244 497.114C333.418 500.176 335.592 502.983 337.767 506.045L341.753 511.659C367.844 547.638 392.124 581.575 385.601 622.913C380.528 653.023 360.234 681.602 340.303 709.161C330.157 723.195 319.648 737.995 311.675 752.284C277.611 814.036 281.96 886.504 285.946 956.676C287.396 978.876 288.483 1000.06 288.483 1020.47H284.859V1020.72Z" fill="#F205B3" fill-opacity="0.05"/>
<path d="M192.814 1020.72H189.19C189.19 999.545 188.103 977.345 187.378 955.911C184.117 887.27 180.855 816.332 207.309 752.029C213.107 737.485 221.08 722.94 228.327 708.65C242.823 681.347 257.318 653.278 261.304 624.444C266.377 585.403 248.258 550.7 229.414 513.955L226.515 508.086C224.703 504.769 223.254 501.452 221.442 498.135C205.86 468.024 189.552 436.894 191.002 403.721C193.176 364.68 213.107 327.17 232.313 290.681C238.474 279.198 244.634 267.205 250.433 255.467C268.914 216.936 289.57 173.047 270.726 130.178C261.666 109.254 247.171 91.1373 233.401 73.5305C215.644 51.0755 197.525 28.1101 189.915 -0.468966L193.539 -0.979309C200.786 27.0895 218.905 50.0548 236.662 72.2547C250.795 89.8615 265.29 108.234 274.35 129.158C293.556 173.047 272.538 217.192 254.056 255.978C248.621 267.715 242.098 279.708 235.937 291.191C216.731 327.425 196.8 364.935 194.988 403.466C193.176 436.128 209.483 467.004 225.066 496.859C226.878 500.176 228.69 503.493 230.139 506.81L233.038 512.679C252.244 549.679 270.364 584.637 265.29 624.189C261.666 653.278 246.809 681.602 232.313 708.905C224.703 723.195 217.093 737.74 211.295 752.029C185.204 816.077 188.103 886.759 191.364 955.145C192.089 977.345 192.814 999.545 192.814 1020.72Z" fill="#F205B3" fill-opacity="0.05"/>
<path d="M97.1448 1020.72H93.521C93.521 996.738 92.7962 972.242 92.4338 948.511C90.9843 883.953 89.1724 817.353 99.3191 753.05C112.002 672.416 124.323 596.12 106.929 509.617C90.2595 426.432 98.5943 354.473 115.989 271.798C128.672 211.833 118.525 156.971 107.654 99.0476C101.493 66.8961 95.3329 33.7239 93.521 -0.468964L97.1448 -0.468964C98.9567 33.4687 105.117 66.6409 111.278 98.7924C122.149 156.971 132.296 211.833 119.612 272.053C102.218 354.473 93.8833 426.176 110.553 509.107C127.947 595.865 115.989 672.416 102.943 753.305C92.7962 817.608 94.6081 884.208 96.0576 948.511C96.7824 972.242 97.1448 996.738 97.1448 1020.72Z" fill="#F205B3" fill-opacity="0.05"/>
</g>
<defs>
<clipPath id="clip0_35_438">
<rect width="1435" height="1021" fill="white"/>
</clipPath>
</defs>
</svg>
